<?xml version="1.0" encoding="UTF-8" standalone="no"?><!DOCTYPE svg PUBLIC "-//W3C//DTD SVG 1.1//EN" "http://www.w3.org/Graphics/SVG/1.1/DTD/svg11.dtd"><svg width="100%" height="100%" viewBox="0 0 356 356" version="1.1" xmlns="http://www.w3.org/2000/svg" xmlns:xlink="http://www.w3.org/1999/xlink" xml:space="preserve" xmlns:serif="http://www.serif.com/" style="fill-rule:evenodd;clip-rule:evenodd;stroke-linejoin:round;stroke-miterlimit:2;"><path id="facebook-with-circle" d="M177.922,0c-98.265,0 -177.922,79.657 -177.922,177.922c0,98.265 79.657,177.922 177.922,177.922c98.265,0 177.922,-79.657 177.922,-177.922c0,-98.265 -79.657,-177.922 -177.922,-177.922Zm42.146,122.952l-26.744,-0c-3.17,-0 -6.691,4.17 -6.691,9.711l-0,19.312l33.453,0l-5.06,27.541l-28.393,0l-0,82.678l-31.563,0l0,-82.678l-28.634,0l-0,-27.541l28.634,0l0,-16.198c0,-23.241 16.125,-42.127 38.254,-42.127l26.744,0l-0,29.302Z" style="fill-rule:nonzero;"/></svg>