<?xml version="1.0" encoding="UTF-8" standalone="no"?><!DOCTYPE svg PUBLIC "-//W3C//DTD SVG 1.1//EN" "http://www.w3.org/Graphics/SVG/1.1/DTD/svg11.dtd"><svg width="100%" height="100%" viewBox="0 0 356 356" version="1.1" xmlns="http://www.w3.org/2000/svg" xmlns:xlink="http://www.w3.org/1999/xlink" xml:space="preserve" xmlns:serif="http://www.serif.com/" style="fill-rule:evenodd;clip-rule:evenodd;stroke-linejoin:round;stroke-miterlimit:2;"><path id="instagram-with-circle" d="M233.523,177.922c-0,30.71 -24.891,55.601 -55.601,55.601c-30.71,-0 -55.6,-24.891 -55.6,-55.601c-0,-3.169 0.333,-6.264 0.908,-9.267l-19.442,0l-0,74.079c-0,5.152 4.17,9.322 9.322,9.322l129.643,0c5.133,0 9.303,-4.17 9.303,-9.322l0,-74.079l-19.441,0c0.574,3.003 0.908,6.098 0.908,9.267Zm-55.601,37.067c20.461,0 37.067,-16.606 37.067,-37.067c0,-20.461 -16.606,-37.067 -37.067,-37.067c-20.461,0 -37.067,16.606 -37.067,37.067c0,20.461 16.606,37.067 37.067,37.067Zm44.481,-75.987l22.221,-0c3.077,-0 5.579,-2.502 5.579,-5.56l0,-22.222c0,-3.077 -2.502,-5.579 -5.579,-5.579l-22.221,0c-3.077,0 -5.579,2.502 -5.579,5.579l0,22.222c0.019,3.058 2.521,5.56 5.579,5.56Zm-44.481,-139.002c-98.265,0 -177.922,79.657 -177.922,177.922c-0,98.265 79.657,177.922 177.922,177.922c98.265,0 177.922,-79.657 177.922,-177.922c0,-98.265 -79.657,-177.922 -177.922,-177.922Zm92.668,249.999c0,11.324 -9.267,20.591 -20.591,20.591l-144.154,0c-11.324,0 -20.591,-9.267 -20.591,-20.591l0,-144.154c0,-11.324 9.267,-20.591 20.591,-20.591l144.154,0c11.324,0 20.591,9.267 20.591,20.591l0,144.154Z" style="fill-rule:nonzero;"/></svg>