<?xml version="1.0" encoding="UTF-8" standalone="no"?><!DOCTYPE svg PUBLIC "-//W3C//DTD SVG 1.1//EN" "http://www.w3.org/Graphics/SVG/1.1/DTD/svg11.dtd"><svg width="100%" height="100%" viewBox="0 0 355 355" version="1.1" xmlns="http://www.w3.org/2000/svg" xmlns:xlink="http://www.w3.org/1999/xlink" xml:space="preserve" xmlns:serif="http://www.serif.com/" style="fill-rule:evenodd;clip-rule:evenodd;stroke-linejoin:round;stroke-miterlimit:2;"><path id="youtube-with-circle" d="M206.905,174.216l-41.48,-19.356c-3.62,-1.68 -6.594,0.204 -6.594,4.211l0,36.458c0,4.007 2.974,5.891 6.594,4.211l41.462,-19.356c3.638,-1.699 3.638,-4.469 0.018,-6.168Zm-29.605,-174.216c-97.921,0 -177.3,79.379 -177.3,177.3c0,97.921 79.379,177.3 177.3,177.3c97.921,0 177.3,-79.379 177.3,-177.3c0,-97.921 -79.379,-177.3 -177.3,-177.3Zm0,249.328c-90.755,0 -92.344,-8.182 -92.344,-72.028c0,-63.846 1.589,-72.028 92.344,-72.028c90.755,-0 92.344,8.182 92.344,72.028c-0,63.846 -1.589,72.028 -92.344,72.028Z" style="fill-rule:nonzero;"/></svg>